<svg version="1.1" id="Capa_1" xmlns="http://www.w3.org/2000/svg" x="0" y="0" width="44.238" height="44.238" xml:space="preserve"><path d="M22.119 44.237C9.922 44.237 0 34.315 0 22.12 0 9.924 9.922.001 22.119.001S44.238 9.923 44.238 22.12s-9.924 22.117-22.119 22.117zm0-42.736C10.75 1.501 1.5 10.751 1.5 22.12s9.25 20.619 20.619 20.619 20.619-9.25 20.619-20.619-9.25-20.619-20.619-20.619z"/><path d="M31.434 22.869H12.805a.75.75 0 010-1.5h18.628a.75.75 0 01.001 1.5z"/><path d="M22.119 32.183a.75.75 0 01-.75-.75V12.806a.75.75 0 011.5 0v18.626a.75.75 0 01-.75.751z"/></svg>