<svg width="129" height="76" viewBox="0 0 129 76" fill="none" xmlns="http://www.w3.org/2000/svg">
<path d="M129 38C129 38.2652 128.819 38.5196 128.497 38.7071C128.175 38.8946 127.739 39 127.284 39L18.7163 39C18.2611 39 17.8245 38.8946 17.5027 38.7071C17.1808 38.5196 17 38.2652 17 38C17 37.7348 17.1808 37.4804 17.5027 37.2929C17.8245 37.1054 18.2611 37 18.7163 37L127.284 37C127.509 37 127.732 37.0259 127.941 37.0761C128.149 37.1264 128.338 37.2 128.497 37.2929C128.657 37.3857 128.783 37.496 128.869 37.6173C128.956 37.7386 129 37.8687 129 38V38Z" fill="black"/>
<path d="M38.6161 2.41669C38.6174 2.79459 38.4678 3.15755 38.2003 3.42583L3.44481 37.9955L38.2003 72.5853C38.4693 72.853 38.6204 73.216 38.6204 73.5945C38.6204 73.973 38.4693 74.336 38.2003 74.6036C37.9314 74.8712 37.5666 75.0216 37.1862 75.0216C36.8058 75.0216 36.441 74.8712 36.172 74.6036L0.415827 38.9945C0.283076 38.8619 0.177995 38.7045 0.106634 38.5313C0.0352721 38.3581 -0.000961775 38.1726 1.77223e-05 37.9854C-0.000844889 37.6076 0.14865 37.2447 0.415826 36.9763L36.172 1.41428C36.3717 1.21473 36.6266 1.07881 36.9042 1.0238C37.1818 0.968798 37.4695 0.997201 37.7308 1.10539C37.9922 1.21359 38.2152 1.39667 38.3717 1.63138C38.5281 1.86608 38.6109 2.14179 38.6094 2.42342L38.6161 2.41669Z" fill="#161616"/>
</svg>
