<svg width="150" height="104" viewBox="0 0 150 104" fill="none" xmlns="http://www.w3.org/2000/svg">
<path d="M2.04966 56.3217L46.6968 100.873C47.3389 101.544 48.1091 102.081 48.962 102.451C49.8149 102.821 50.7333 103.017 51.6633 103.028C52.5933 103.039 53.5161 102.864 54.3774 102.514C55.2387 102.164 56.0212 101.646 56.6788 100.989C57.3365 100.333 57.856 99.5523 58.2069 98.6928C58.5578 97.8334 58.733 96.9126 58.7221 95.9846C58.7113 95.0566 58.5146 94.1401 58.1437 93.289C57.7728 92.438 57.2352 91.6695 56.5624 91.0287L23.8331 58.3696L143.027 58.3696C144.838 58.3116 146.555 57.5529 147.815 56.2541C149.076 54.9553 149.78 53.2182 149.78 51.4103C149.78 49.6023 149.076 47.8652 147.815 46.5665C146.555 45.2677 144.838 44.509 143.027 44.4509L23.8187 44.4509L56.548 11.7703C57.8062 10.4548 58.4988 8.70017 58.4775 6.88173C58.4563 5.06329 57.7229 3.32533 56.4342 2.03941C55.1455 0.753494 53.4038 0.0216878 51.5815 0.000474344C49.7591 -0.0207391 48.0008 0.670305 46.6824 1.92587L2.03525 46.4773C0.729364 47.7849 -0.00269345 49.5564 7.44714e-06 51.4025C0.00270834 53.2485 0.739953 55.0179 2.04966 56.3217Z" fill="black"/>
</svg>
