<svg xmlns="http://www.w3.org/2000/svg" viewBox="0 0 21.999 32.539"><g id="arrow-icon" transform="translate(-3.282)"><path id="Path_47" data-name="Path 47" d="M16.239 27.539a.422.422 0 01-.422-.422V.422a.422.422 0 11.844 0v26.695a.422.422 0 01-.422.422z" transform="translate(-1.957 5)"/><path id="Path_48" data-name="Path 48" d="M24.86 11.423a.424.424 0 01-.3-.123L14.283 1.019 4 11.3a.422.422 0 01-.6-.6L13.986.123a.422.422 0 01.3-.123.425.425 0 01.3.123L25.158 10.7a.422.422 0 01-.3.721z" fill="#161616"/></g></svg>