<svg version="1.1" id="Capa_1" xmlns="http://www.w3.org/2000/svg" x="0" y="0" viewBox="0 0 67.551 67.551" xml:space="preserve"><path d="M57.763 39.836c3.895 3.729 5.788 8.795 5.788 15.491 0 1.104.896 2 2 2s2-.885 2-1.989c0-7.736-2.362-13.91-7.022-18.369-10.776-10.312-31.097-9.4-47.422-8.682-2.28.101-4.461.211-6.499.28l14.927-14.929a2 2 0 10-2.828-2.828L.586 28.933a2 2 0 000 2.828l18.123 18.12c.391.391.902.586 1.414.586s1.024-.195 1.415-.586a2 2 0 000-2.828L7.249 32.768c1.915-.11 3.932-.261 6.033-.354 14.744-.648 34.939-1.708 44.481 7.422z"/></svg>