<svg xmlns="http://www.w3.org/2000/svg" viewBox="0 0 54 78.617"><path id="Path_216" data-name="Path 216" d="M128.7 43.755l-7.2-2.776-3.679-3.679a1.149 1.149 0 0 0-.893-.334V33.83a13.4 13.4 0 0 0 3.456-6.807.153.153 0 0 1 .072-.073 3.6 3.6 0 0 0 .967-.065 3.729 3.729 0 0 0 2.89-3.7v-.959a3.777 3.777 0 0 0-1.177-2.747c1.184-6.318.247-11.46-2.721-14.887C117.562 1.3 112.957-.277 107.1.04a17.408 17.408 0 0 0-10.058 3.729c-1.466.183-5.8 1.235-5.8 7.268a32.6 32.6 0 0 0 .947 7.764 3.724 3.724 0 0 0-2.178 3.439v.945a3.729 3.729 0 0 0 2.89 3.7 3.585 3.585 0 0 0 .967.065.155.155 0 0 1 .071.072 13.4 13.4 0 0 0 3.457 6.808v3.137a1.149 1.149 0 0 0-.893.334l-3.677 3.677-7.2 2.776a8.534 8.534 0 0 0-5.458 8.306l1.019 25.45a1.152 1.152 0 0 0 1.15 1.106h.047a1.152 1.152 0 0 0 1.1-1.2l-1.019-25.45a6.224 6.224 0 0 1 .294-2.158L86.951 54a6.193 6.193 0 0 1 1.826 4.408v19.057a1.152 1.152 0 0 0 2.3 0V58.407a8.481 8.481 0 0 0-2.5-6.036l-4.658-4.658a6.223 6.223 0 0 1 2.536-1.813l6.771-2.612 5.156 7.735a3.6 3.6 0 0 0 2.651 1.591q.181.018.36.018a3.6 3.6 0 0 0 2.031-.628l-1.106 25.407a1.152 1.152 0 0 0 1.1 1.2h.051a1.152 1.152 0 0 0 1.15-1.1l1.022-23.477h3.04l1.019 23.481a1.152 1.152 0 0 0 1.15 1.1h.051a1.152 1.152 0 0 0 1.1-1.2L110.9 52.008a3.593 3.593 0 0 0 2.031.628c.119 0 .24-.006.36-.018a3.6 3.6 0 0 0 2.651-1.591l5.156-7.735 6.771 2.612a6.224 6.224 0 0 1 2.532 1.809l-4.658 4.658a8.481 8.481 0 0 0-2.5 6.036v19.058a1.152 1.152 0 0 0 2.3 0V58.407A6.193 6.193 0 0 1 127.371 54l4.188-4.188a6.225 6.225 0 0 1 .294 2.158l-1.019 25.45a1.152 1.152 0 0 0 1.1 1.2h.047a1.152 1.152 0 0 0 1.15-1.106l1.019-25.45a8.537 8.537 0 0 0-5.45-8.309zM96.2 26.606a2.4 2.4 0 0 0-2.49-1.954 1.287 1.287 0 0 1-.351-.024 1.441 1.441 0 0 1-1.049-1.444v-.945a1.4 1.4 0 0 1 1.064-1.413 1.306 1.306 0 0 1 1.284.493 1.67 1.67 0 0 0 2.3.362A9.446 9.446 0 0 0 99.493 19a1.152 1.152 0 1 0-1.945-1.233 7.231 7.231 0 0 1-1.479 1.693 3.6 3.6 0 0 0-1.551-.843 30.2 30.2 0 0 1-.977-7.58c0-4.8 3.577-5 3.977-5a1.151 1.151 0 0 0 .8-.321 14.8 14.8 0 0 1 8.906-3.373c5.122-.277 9.082 1.023 11.451 3.759 2.412 2.785 3.2 7.066 2.295 12.418a5.468 5.468 0 0 0-1.355.091l-1.287-3.09a1.153 1.153 0 0 0-1.355-.671c-.123.032-12.373 3.14-17.535-3.286A1.152 1.152 0 1 0 97.64 13c5.215 6.493 15.664 4.967 18.932 4.3l1.008 2.42a2 2 0 0 0 2.31 1.185 2.986 2.986 0 0 1 1.054-.073 1.407 1.407 0 0 1 1.065 1.4v.959a1.441 1.441 0 0 1-1.049 1.444 1.285 1.285 0 0 1-.351.024 2.4 2.4 0 0 0-2.491 1.954 11.143 11.143 0 0 1-21.918 0zm6.114 23.342a1.31 1.31 0 0 1-2.017-.2l-5.2-7.794 2.263-2.263 8.11 7.1zm3.426 1.786l.089-2.043 1.331-1.331 1.331 1.331.089 2.043zm1.42-6.533L99.7 38.67v-2.9a13.436 13.436 0 0 0 14.929 0v2.9zm6.862 4.547a1.31 1.31 0 0 1-2.017.2l-3.16-3.161 8.11-7.1 2.263 2.263z" transform="translate(-80.161)"/></svg>