<svg xmlns="http://www.w3.org/2000/svg" viewBox="0 0 19 19"><defs><style>.cls-1{fill:#fff}</style></defs><g id="clock_3_" data-name="clock(3)"><g id="Group_7300" data-name="Group 7300"><g id="Group_7299" data-name="Group 7299"><path id="Path_338" data-name="Path 338" class="cls-1" d="M9.5 0A9.5 9.5 0 1 0 19 9.5 9.5 9.5 0 0 0 9.5 0zm.408 18.165v-1.671a.408.408 0 0 0-.815 0v1.671A8.681 8.681 0 0 1 .835 9.908h1.671a.408.408 0 0 0 0-.815H.835A8.681 8.681 0 0 1 9.092.835v1.671a.408.408 0 0 0 .815 0V.835a8.681 8.681 0 0 1 8.257 8.257h-1.67a.408.408 0 0 0 0 .815h1.675a8.681 8.681 0 0 1-8.261 8.258z"/></g></g><g id="Group_7302" data-name="Group 7302" transform="translate(9.425 5.295)"><g id="Group_7301" data-name="Group 7301"><path id="Path_339" data-name="Path 339" class="cls-1" d="M182.682 102.047l-3.474-3.532v-3.671a.364.364 0 0 0-.728 0v3.82a.364.364 0 0 0 .105.255l3.576 3.638a.364.364 0 0 0 .52-.509z" transform="translate(-178.48 -94.48)"/></g></g></g></svg>