<svg xmlns="http://www.w3.org/2000/svg" viewBox="0 0 28 21.636"><path d="M21 7.636a7 7 0 1 0 7 7 7 7 0 0 0-7-7zm0 12.727a5.727 5.727 0 1 1 5.727-5.727A5.727 5.727 0 0 1 21 20.363z"/><path d="M23.545 14h-1.909v-1.909a.636.636 0 1 0-1.273 0V14h-1.909a.636.636 0 1 0 0 1.273h1.909v1.909a.636.636 0 1 0 1.273 0v-1.909h1.909a.636.636 0 0 0 0-1.273z"/><path d="M15.273 6.364H.636a.636.636 0 0 0 0 1.273h14.637a.636.636 0 0 0 0-1.273zM18.455 0H.636a.636.636 0 1 0 0 1.273h17.819a.636.636 0 0 0 0-1.273zm-7.637 12.727H.636a.636.636 0 1 0 0 1.273h10.182a.636.636 0 1 0 0-1.273z" fill-rule="evenodd"/></svg>