<svg xmlns="http://www.w3.org/2000/svg" version="1.1" id="Capa_1" x="0" y="0" width="512" height="512" viewBox="0 0 101.968 101.968" xml:space="preserve"><g fill="#4d4d4d"><path d="M24.715 47.432L7.968 64.86v29.406a1.5 1.5 0 001.5 1.5h20.334a1.5 1.5 0 001.5-1.5V49.158l-4.69-1.726h-1.897zM66.135 61.1H45.801a1.5 1.5 0 00-1.5 1.5v31.666a1.5 1.5 0 001.5 1.5h20.334a1.5 1.5 0 001.5-1.5V62.6a1.5 1.5 0 00-1.5-1.5zm35.589-31.61a5.462 5.462 0 01-6.03-.649L92 25.753l-13.365 14.58v53.934a1.5 1.5 0 001.5 1.5h20.334a1.5 1.5 0 001.5-1.5v-64.93c-.084.05-.159.108-.245.153z"/><path d="M57.797 54.094a3.005 3.005 0 003.248-.788l30.839-33.643 7.217 6.032a1.136 1.136 0 001.859-.971L99.396 7.235a1.132 1.132 0 00-1.231-1.029l-17.49 1.563a1.134 1.134 0 00-.628 2l7.229 6.043L57.98 47.769 24.535 35.463a3.006 3.006 0 00-3.198.735L.837 57.531a3 3 0 004.327 4.158l19.141-19.92 33.492 12.325z"/></g></svg>