<svg version="1.1" id="Capa_1" xmlns="http://www.w3.org/2000/svg" x="0" y="0" viewBox="0 0 54 54" xml:space="preserve"><path d="M13 36H9V1a1 1 0 10-2 0v35H3a1 1 0 00-1 1v12a1 1 0 001 1h4v3a1 1 0 102 0v-3h4a1 1 0 001-1V37a1 1 0 00-1-1zm-1 12H4V38h8v10zm20-28h-4V1a1 1 0 10-2 0v19h-4a1 1 0 00-1 1v12a1 1 0 001 1h4v19a1 1 0 102 0V34h4a1 1 0 001-1V21a1 1 0 00-1-1zm-1 12h-8V22h8v10zM51 4h-4V1a1 1 0 10-2 0v3h-4a1 1 0 00-1 1v12a1 1 0 001 1h4v35a1 1 0 102 0V18h4a1 1 0 001-1V5a1 1 0 00-1-1zm-1 12h-8V6h8v10z"/></svg>