<svg width="46" height="46" fill="none" xmlns="http://www.w3.org/2000/svg"><g clip-path="url(#clip0)"><path d="M15.291 44.766a4.355 4.355 0 0 0 6.151 0L41.197 25.01a4.363 4.363 0 0 0 1.244-2.57l1.377-11.793a7.548 7.548 0 0 0-1.606-5.617l3.555-3.555A.85.85 0 0 0 44.564.273l-3.555 3.554a7.549 7.549 0 0 0-5.618-1.605L23.6 3.6a4.365 4.365 0 0 0-2.57 1.244L1.273 24.597a4.35 4.35 0 0 0 0 6.151l14.018 14.018zM2.478 25.8L22.232 6.047a2.655 2.655 0 0 1 1.565-.758l11.792-1.377c1.495-.178 3 .226 4.205 1.13l-4.986 4.985a5.224 5.224 0 1 0 1.204 1.204l4.986-4.986a5.857 5.857 0 0 1 1.13 4.205L40.75 22.243a2.658 2.658 0 0 1-.757 1.565L20.239 43.562a2.65 2.65 0 0 1-3.744 0L2.478 29.545a2.647 2.647 0 0 1 0-3.744zm31.778-14.018a3.526 3.526 0 1 1-4.98 4.992 3.526 3.526 0 0 1 4.98-4.992z" fill="#01ACEE"/></g><defs><clipPath id="clip0"><path fill="#fff" d="M0 0h46v46H0z"/></clipPath></defs></svg>