<svg xmlns="http://www.w3.org/2000/svg" version="1.1" id="Capa_1" x="0" y="0" xml:space="preserve" width="512" height="512"><path d="M505.078 382.839l-12.331-2.372c-5.769-1.109-10.325-4.89-12.476-10.368-2.159-5.478-1.391-11.349 2.091-16.094l7.748-10.547a8.54 8.54 0 0 0-.853-11.093l-16.717-16.708c-2.893-2.876-7.432-3.319-10.82-1.024l-10.377 7.031c-4.89 3.319-10.786 3.849-16.171 1.493-5.393-2.355-8.994-7.04-9.899-12.86l-1.988-12.928a8.54 8.54 0 0 0-8.439-7.236h-23.629a8.538 8.538 0 0 0-8.388 6.921l-3.055 15.915c-1.084 5.658-4.762 10.163-10.078 12.365-5.325 2.21-11.102 1.621-15.872-1.613l-13.414-9.088c-3.371-2.287-7.927-1.852-10.82 1.024l-16.717 16.708a8.548 8.548 0 0 0-.845 11.093l.121.164-35.863-19.56a22.546 22.546 0 0 1-11.75-19.806v-28.228c5.709-7.484 22.076-30.814 29.892-61.764 8.055-6.468 12.774-16.154 12.774-26.53V153.6c0-8.218-3.072-16.188-8.533-22.4V85.811c.478-4.693 2.355-32.64-17.852-55.689C263.289 10.129 234.839 0 196.268 0c-38.579 0-67.029 10.129-84.548 30.123-20.215 23.048-18.338 50.995-17.852 55.688V131.2c-5.47 6.212-8.533 14.182-8.533 22.4v34.133c0 10.377 4.71 20.062 12.774 26.53 7.817 30.95 24.183 54.281 29.892 61.764v28.228c0 8.26-4.506 15.846-11.75 19.806l-76.134 41.523A76.929 76.929 0 0 0 .002 433.168v36.164a8.53 8.53 0 0 0 8.533 8.533h312.453l11.383 11.383c2.978 2.995 7.697 3.336 11.076.853l10.556-7.74c4.745-3.473 10.615-4.233 16.085-2.091 5.487 2.15 9.267 6.699 10.377 12.484l2.364 12.314a8.538 8.538 0 0 0 8.388 6.929h23.629a8.54 8.54 0 0 0 8.439-7.236l1.399-9.096c.896-5.854 4.702-10.709 10.189-12.979 5.487-2.278 11.597-1.527 16.384 1.971l7.415 5.444a8.53 8.53 0 0 0 11.085-.853l16.708-16.708a8.52 8.52 0 0 0 1.032-10.812l-7.031-10.385c-3.311-4.881-3.849-10.778-1.493-16.171 2.347-5.393 7.04-9.003 12.868-9.899l12.919-1.988a8.54 8.54 0 0 0 7.236-8.439v-23.629a8.534 8.534 0 0 0-6.918-8.378zm-488.01 50.33a59.89 59.89 0 0 1 31.215-52.599l76.134-41.532a39.594 39.594 0 0 0 20.651-34.782v-31.189a8.573 8.573 0 0 0-1.988-5.47c-.205-.247-21.163-25.737-29.099-60.297a8.508 8.508 0 0 0-3.686-5.257c-4.949-3.2-7.893-8.55-7.893-14.31V153.6c0-4.787 2.031-9.25 5.717-12.578a8.552 8.552 0 0 0 2.816-6.34V85.333c0-.375-.026-.742-.077-1.118-.034-.239-2.927-23.876 13.688-42.837 14.148-16.137 38.281-24.311 71.723-24.311 33.323 0 57.395 8.124 71.552 24.141 16.623 18.782 13.875 42.803 13.85 43.008a9.737 9.737 0 0 0-.068 1.118v49.348a8.552 8.552 0 0 0 2.816 6.34c3.678 3.328 5.717 7.791 5.717 12.578v34.133c0 5.76-2.953 11.11-7.902 14.31a8.53 8.53 0 0 0-3.686 5.257c-7.927 34.56-28.885 60.049-29.099 60.297a8.615 8.615 0 0 0-1.98 5.47v31.189a39.576 39.576 0 0 0 20.651 34.782l54.238 29.59c-.146.493-.306.984-.499 1.471-2.15 5.478-6.699 9.259-12.476 10.368l-12.322 2.372a8.536 8.536 0 0 0-6.929 8.38v23.629a8.54 8.54 0 0 0 7.236 8.439l12.919 1.988c5.828.896 10.522 4.506 12.868 9.899 2.364 5.393 1.818 11.29-1.493 16.171l-6.402 9.455H17.068v-27.631zm477.864-25.643l-5.692.879c-11.546 1.775-21.231 9.233-25.907 19.942-4.676 10.709-3.55 22.886 3.004 32.563l3.081 4.548-6.554 6.545-1.51-1.109c-9.626-7.057-21.973-8.55-33.015-3.977s-18.705 14.353-20.523 26.155l-.282 1.86h-9.267l-1.033-5.402c-2.21-11.477-10.027-20.881-20.907-25.148-10.871-4.267-23.006-2.688-32.41 4.224l-4.651 3.405-6.554-6.554 3.089-4.548c6.545-9.677 7.672-21.854 2.995-32.563-4.676-10.709-14.353-18.167-25.907-19.942l-5.692-.879v-9.259l5.402-1.041c11.477-2.202 20.872-10.018 25.148-20.89 4.267-10.88 2.697-23.006-4.215-32.435l-3.405-4.642 6.545-6.545 7.586 5.128a33.767 33.767 0 0 0 31.974 3.26 33.816 33.816 0 0 0 20.309-24.909l1.724-8.994h9.267l.87 5.692c1.775 11.554 9.242 21.24 19.942 25.916 10.709 4.668 22.878 3.55 32.572-3.012l4.54-3.081 6.554 6.545-3.413 4.651c-6.903 9.421-8.482 21.547-4.215 32.427 4.275 10.871 13.679 18.688 25.148 20.89l5.402 1.041v9.259z" data-original="#000000" class="active-path" data-old_color="##EAEAE" fill="#EAEAEA"/><path d="M401.066 358.4c-23.526 0-42.667 19.14-42.667 42.667 0 23.526 19.14 42.667 42.667 42.667 23.526 0 42.667-19.14 42.667-42.667-.001-23.527-19.141-42.667-42.667-42.667zm0 68.267c-14.114 0-25.6-11.486-25.6-25.6s11.486-25.6 25.6-25.6 25.6 11.486 25.6 25.6-11.486 25.6-25.6 25.6z" data-original="#000000" class="active-path" data-old_color="##EAEAE" fill="#EAEAEA"/></svg>