<svg version="1.1" id="Capa_1" xmlns="http://www.w3.org/2000/svg" x="0" y="0" viewBox="0 0 480.021 480.021" xml:space="preserve"><path d="M479.323 168.932a7.997 7.997 0 0 0-4.04-4.04l-232-104a8 8 0 0 0-6.544 0l-232 104a8 8 0 0 0 0 14.608l75.272 33.736v142.96c0 2.36 1.042 4.6 2.848 6.12 90.736 76.683 223.568 76.683 314.304 0a7.999 7.999 0 0 0 2.848-6.12v-142.96l32-14.344v138.904l-12 17.952a23.912 23.912 0 0 0-4 13.312v9.272c0 13.255 10.745 24 24 24s24-10.745 24-24v-9.296a23.912 23.912 0 0 0-4-13.312l-12-17.928V191.724l27.272-12.224a8.002 8.002 0 0 0 4.04-10.568zM384.01 352.436c-83.779 68.504-204.221 68.504-288 0v-132l140.728 63.088a8 8 0 0 0 6.544 0l140.728-63.112v132.024zm64 25.872a8 8 0 0 1-16 0v-9.272a7.947 7.947 0 0 1 1.344-4.432l6.656-10.008 6.656 9.984a7.947 7.947 0 0 1 1.344 4.432v9.296zm-12.544-198.496L240.65 164.196a8.026 8.026 0 0 0-1.28 16l165.72 13.256-165.08 73.944-212.44-95.2 212.44-95.2 212.44 95.2-16.984 7.616z"/></svg>