<svg width="7" height="7" fill="none" xmlns="http://www.w3.org/2000/svg"><g clip-path="url(#clip0)"><path fill="#fff" d="M0 0h7v7H0z"/><path d="M5.948 2.34H.1a.1.1 0 0 0-.1.1v2.806a.1.1 0 0 0 .1.1h3.976a.1.1 0 0 0 0-.2H.2V2.54h5.647v.25a.1.1 0 1 0 .2 0v-.35a.1.1 0 0 0-.1-.1zm-.68-.466L.59.82a.1.1 0 0 0-.12.076L.236 1.95a.1.1 0 1 0 .196.043l.212-.954 4.58 1.03a.1.1 0 0 0 .044-.196zm-.568-.58L1.893.124a.1.1 0 0 0-.129.048L1.53.64a.1.1 0 1 0 .18.09l.192-.384 2.72 1.133a.1.1 0 1 0 .078-.185z" fill="#000"/><path d="M4.77 2.807h-.928a.1.1 0 1 0 0 .2h.929a.1.1 0 0 0 0-.2zm-1.863.007a1.03 1.03 0 1 0 0 2.058 1.03 1.03 0 0 0 0-2.058zm0 1.87a.842.842 0 1 1 0-1.683.842.842 0 0 1 0 1.684zm2.807-1.543c-.62 0-1.287.146-1.287.468v2.807c0 .32.667.467 1.287.467.62 0 1.286-.146 1.286-.467V3.609c0-.322-.667-.468-1.286-.468zm1.052 3.273c-.018.065-.368.235-1.052.235s-1.035-.17-1.053-.233v-.184c.249.125.66.184 1.053.184.392 0 .803-.06 1.052-.184v.182zm0-.468c-.018.065-.368.236-1.052.236S4.679 6.01 4.66 5.948v-.184c.249.125.66.184 1.053.184.392 0 .803-.06 1.052-.184v.182zm0-.468c-.018.065-.368.236-1.052.236s-1.035-.17-1.053-.234v-.184c.249.125.66.184 1.053.184.392 0 .803-.06 1.052-.184v.182zm0-.468c-.018.065-.368.236-1.052.236s-1.035-.17-1.053-.234v-.184c.249.126.66.184 1.053.184.392 0 .803-.059 1.052-.184v.182zm0-.467c-.018.065-.368.235-1.052.235s-1.035-.17-1.053-.234v-.183c.249.124.66.183 1.053.183.392 0 .803-.059 1.052-.184v.183zm0-.468c-.018.065-.368.236-1.052.236S4.679 4.14 4.66 4.077v-.184c.249.125.66.184 1.053.184.392 0 .803-.06 1.052-.184v.182zm-1.052-.232c-.683 0-1.034-.17-1.053-.232.019-.066.37-.236 1.053-.236.678 0 1.029.168 1.052.234-.023.066-.374.234-1.052.234z" fill="#000"/><path d="M1.971 4.678h-.884L.668 4.22v-.76l.463-.453h.84a.1.1 0 0 0 0-.2h-.88a.1.1 0 0 0-.07.028l-.523.51a.126.126 0 0 0-.03.082v.831a.1.1 0 0 0 .026.068l.475.52a.1.1 0 0 0 .074.032h.928a.1.1 0 0 0 0-.2z" fill="#000"/></g><defs><clipPath id="clip0"><path fill="#fff" d="M0 0h7v7H0z"/></clipPath></defs></svg>