<svg xmlns="http://www.w3.org/2000/svg" version="1.1" id="Capa_1" x="0" y="0" viewBox="0 0 60 60" xml:space="preserve" width="512" height="512"><path d="M36.491 22h-25a1 1 0 100 2h25a1 1 0 100-2zm-25-6h10a1 1 0 100-2h-10a1 1 0 100 2zm26 15a1 1 0 00-1-1h-25a1 1 0 100 2h25a1 1 0 001-1zm-8 8a1 1 0 00-1-1h-17a1 1 0 100 2h17a1 1 0 001-1zm-18 7a1 1 0 100 2h14a1 1 0 100-2h-14z" data-original="#000000" class="active-path" data-old_color="#eaeaea" fill="#eaeaea"/><path d="M2.491 2h29v14h14v15h2V14.586L32.905 0H.491v60h37v-2h-35V2zm31 1.414L44.077 14H33.491V3.414z" data-original="#000000" class="active-path" data-old_color="#eaeaea" fill="#eaeaea"/><path d="M59.232 58.291l-5.97-6.244a10.74 10.74 0 002.82-7.251C56.083 38.843 51.24 34 45.287 34s-10.796 4.843-10.796 10.796 4.843 10.796 10.796 10.796c2.442 0 4.689-.824 6.499-2.196l6.001 6.276a.997.997 0 001.414.032 1 1 0 00.031-1.413zM36.491 44.796c0-4.85 3.946-8.796 8.796-8.796s8.796 3.946 8.796 8.796-3.946 8.796-8.796 8.796-8.796-3.946-8.796-8.796z" data-original="#000000" class="active-path" data-old_color="#eaeaea" fill="#eaeaea"/></svg>