<svg xmlns="http://www.w3.org/2000/svg" version="1.1" id="Capa_1" x="0" y="0" viewBox="0 0 480.356 480.356" xml:space="preserve" width="512" height="512"><path d="M469.725 418.417l-125.32-125.328c57.936-86.275 34.963-203.18-51.312-261.116S89.913-2.989 31.977 83.286s-34.963 203.18 51.312 261.116c63.446 42.605 146.358 42.605 209.804 0l125.32 125.328c14.169 14.169 37.143 14.169 51.312 0s14.17-37.143 0-51.313zm-281.368-58.064c-94.949-.106-171.894-77.051-172-172 0-94.993 77.007-172 172-172s172 77.007 172 172-77.007 172-172 172zm270.064 98.057a20.279 20.279 0 0 1-14.352 5.944 20.153 20.153 0 0 1-14.344-5.936L307.669 336.353l28.688-28.688 122.056 122.064c7.922 7.918 7.926 20.759.008 28.681z" data-original="#000000" class="active-path" data-old_color="#eaeaea" fill="#eaeaea"/><path d="M192.573 32.409l-.424 16a139.667 139.667 0 0 1 105.896 52.936l12.528-9.952a155.681 155.681 0 0 0-118-58.984zm129.672 75.824l-13.72 8.232a140.126 140.126 0 0 1 8 15.368l14.592-6.464a157.2 157.2 0 0 0-8.872-17.136z" data-original="#000000" class="active-path" data-old_color="#eaeaea" fill="#eaeaea"/></svg>