<svg xmlns="http://www.w3.org/2000/svg" viewBox="0 0 29.104 29.104"><g id="tags-icon" transform="rotate(135 22.891 40.714)"><g id="Group_7411" data-name="Group 7411" transform="translate(0 54.819)"><g id="Group_7410" data-name="Group 7410"><path id="Path_367" data-name="Path 367" d="M20.58 66.991a1.74 1.74 0 0 0-.5-1.236l-9.713-9.7a4.205 4.205 0 0 0-1.386-.876 4.2 4.2 0 0 0-1.589-.36H1.739a1.671 1.671 0 0 0-1.222.516A1.671 1.671 0 0 0 0 56.558v5.651A4.194 4.194 0 0 0 .36 63.8a4.052 4.052 0 0 0 .876 1.372l9.713 9.728a1.664 1.664 0 0 0 1.222.5 1.74 1.74 0 0 0 1.236-.5l6.67-6.683a1.664 1.664 0 0 0 .503-1.226zm-15-6.6a1.676 1.676 0 0 1-1.229.51 1.739 1.739 0 0 1 0-3.478A1.739 1.739 0 0 1 5.576 60.4z" transform="translate(0 -54.819)" fill="#a7a7a7"/></g></g></g></svg>