<svg xmlns="http://www.w3.org/2000/svg" viewBox="0 0 23 27.724"><path id="user" d="M27.507 20.512l-4.777-2.284A1.254 1.254 0 0 1 22 17.1v-1.62c.114-.134.235-.286.36-.455a10.775 10.775 0 0 0 1.477-2.773 2.133 2.133 0 0 0 1.387-1.73V8.474c0-.461-.4-.772-.724-1.121V4.809a4.155 4.155 0 0 0-1.046-3.121C22.427.568 20.76 0 18.5 0s-3.927.568-4.954 1.688A4.156 4.156 0 0 0 12.5 4.809v2.544a2.087 2.087 0 0 0-.677 1.255v1.913a2.074 2.074 0 0 0 .926 1.487A9.878 9.878 0 0 0 14.5 15.47v1.583a1.257 1.257 0 0 1-.688 1.11l-4.46 2.327A4.288 4.288 0 0 0 7 24.277v1.549C7 28.1 14.563 27.7 18.54 27.7S30 28.1 30 25.826v-1.455a4.276 4.276 0 0 0-2.493-3.859zM29 25.826c0 .649-3.706.875-10.5.875S8 26.475 8 25.826v-1.549a3.337 3.337 0 0 1 1.83-2.948L14.29 19a2.208 2.208 0 0 0 1.21-1.95v-1.92l-.117-.13a8.9 8.9 0 0 1-1.7-3.379l-.046-.189-.171-.105a.945.945 0 0 1-.462-.8V8.609a.927.927 0 0 1 .335-.705l.165-.142V4.72a3.216 3.216 0 0 1 .8-2.4c.829-.9 2.243-1.362 4.2-1.362s3.364.455 4.193 1.353A3.261 3.261 0 0 1 23.5 4.72v3.041l.165.143a.925.925 0 0 1 .335.7v1.913a.958.958 0 0 1-.711.908l-.249.073-.08.237a9.845 9.845 0 0 1-1.417 2.732 6.338 6.338 0 0 1-.419.516l-.124.141V17.1a2.2 2.2 0 0 0 1.283 1.986l4.777 2.284a3.328 3.328 0 0 1 1.94 3z" transform="translate(-7)"/></svg>