<svg xmlns="http://www.w3.org/2000/svg" viewBox="0 0 29.334 23.046">
  <defs>
    <style>
      .cls-1, .cls-2 {
        fill: #fff;
      }

      .cls-2 {
        fill-rule: evenodd;
      }
    </style>
  </defs>
  <g id="Group_7216" data-name="Group 7216" transform="translate(18.818 12.531)">
    <path id="Path_33" data-name="Path 33" class="cls-1" d="M34.3,30.8H32.2V28.7a.7.7,0,1,0-1.4,0v2.1H28.7a.7.7,0,1,0,0,1.4h2.1v2.1a.7.7,0,0,0,1.4,0V32.2h2.1a.7.7,0,0,0,0-1.4Z" transform="translate(-28 -28)"/>
    <path id="Path_320" data-name="Path 320" class="cls-1" d="M29.167,22a7.167,7.167,0,1,0,7.167,7.167A7.167,7.167,0,0,0,29.167,22Zm0,13.03a5.864,5.864,0,1,1,5.864-5.864A5.863,5.863,0,0,1,29.167,35.03Z" transform="translate(-25.818 -25.818)"/>
    <g id="Group_7215" data-name="Group 7215" transform="translate(-17.818 -11.454)">
      <g id="Group_6455" data-name="Group 6455">
        <path id="Path_34" data-name="Path 34" class="cls-2" d="M15.273,15.716H.636a.738.738,0,0,0,0,1.461H15.273a.738.738,0,0,0,0-1.461Zm3.182-7.307H.636a.738.738,0,0,0,0,1.461H18.455a.738.738,0,0,0,0-1.461ZM10.818,23.024H.636a.738.738,0,0,0,0,1.461H10.818a.738.738,0,0,0,0-1.461Z" transform="translate(-1 -9.485)"/>
      </g>
    </g>
  </g>
</svg>
