<svg xmlns="http://www.w3.org/2000/svg" viewBox="0 0 70 70">
  <g id="building" transform="translate(-2 -4)">
    <g id="Group_6728" data-name="Group 6728" transform="translate(2 4)">
      <g id="Group_6727" data-name="Group 6727">
        <path id="Path_196" data-name="Path 196" d="M153.3,477.867H120.634a1.167,1.167,0,0,0-1.167,1.167v2.333a1.167,1.167,0,1,0,2.333,0V480.2h31.5a1.167,1.167,0,0,0,0-2.333Z" transform="translate(-103.134 -412.534)"/>
        <path id="Path_197" data-name="Path 197" d="M187.733,161.767a1.167,1.167,0,0,0,1.167,1.167h4.667a1.167,1.167,0,0,0,1.167-1.167v-7a1.167,1.167,0,0,0-1.167-1.167H188.9a1.167,1.167,0,0,0-1.167,1.167v7Zm2.333-5.833H192.4V160.6h-2.333Z" transform="translate(-162.066 -132.6)"/>
        <path id="Path_198" data-name="Path 198" d="M15.167,102.4h-14A1.167,1.167,0,0,0,0,103.567V126.9a1.167,1.167,0,0,0,2.333,0V104.733H15.167a1.167,1.167,0,0,0,0-2.333Z" transform="translate(0 -88.4)"/>
        <path id="Path_199" data-name="Path 199" d="M409.6,366.567a1.167,1.167,0,0,0,1.167,1.167h4.667a1.167,1.167,0,0,0,1.167-1.167v-7a1.167,1.167,0,0,0-1.167-1.167h-4.667a1.167,1.167,0,0,0-1.167,1.167Zm2.333-5.833h2.333V365.4h-2.333Z" transform="translate(-353.6 -309.4)"/>
        <path id="Path_200" data-name="Path 200" d="M5.833,307.2C.066,307.2,0,322.215,0,322.367a5.843,5.843,0,0,0,4.667,5.716v5.951a1.167,1.167,0,0,0,2.333,0v-5.951a5.843,5.843,0,0,0,4.667-5.716C11.667,322.215,11.6,307.2,5.833,307.2Zm0,18.667a3.5,3.5,0,0,1-3.5-3.5c0-5.812,1.561-12.833,3.5-12.833s3.5,7.021,3.5,12.833A3.5,3.5,0,0,1,5.833,325.867Z" transform="translate(0 -265.2)"/>
        <path id="Path_201" data-name="Path 201" d="M57.033,256H52.367a1.167,1.167,0,0,0-1.167,1.167V259.5a1.167,1.167,0,0,0,2.333,0v-1.167h2.333v5.833a1.167,1.167,0,0,0,2.333,0v-7A1.167,1.167,0,0,0,57.033,256Z" transform="translate(-44.2 -221)"/>
        <path id="Path_202" data-name="Path 202" d="M410.767,162.934h4.667a1.167,1.167,0,0,0,1.167-1.167v-7a1.167,1.167,0,0,0-1.167-1.167h-4.667a1.167,1.167,0,0,0-1.167,1.167v7A1.167,1.167,0,0,0,410.767,162.934Zm1.167-7h2.333V160.6h-2.333Z" transform="translate(-353.6 -132.601)"/>
        <path id="Path_203" data-name="Path 203" d="M57.033,153.6H52.367a1.167,1.167,0,0,0-1.167,1.167v7a1.167,1.167,0,0,0,1.167,1.167h4.667a1.167,1.167,0,0,0,1.167-1.167v-7A1.167,1.167,0,0,0,57.033,153.6Zm-1.167,7H53.533v-4.667h2.333V160.6Z" transform="translate(-44.2 -132.6)"/>
        <path id="Path_204" data-name="Path 204" d="M273.067,161.767a1.167,1.167,0,0,0,1.167,1.167H278.9a1.167,1.167,0,0,0,1.167-1.167v-7A1.167,1.167,0,0,0,278.9,153.6h-4.667a1.167,1.167,0,0,0-1.167,1.167Zm2.333-5.833h2.333V160.6H275.4Z" transform="translate(-235.734 -132.6)"/>
        <path id="Path_205" data-name="Path 205" d="M407.7,102.4h-14a1.167,1.167,0,1,0,0,2.333h12.833v46.881a3.333,3.333,0,0,0-1.766-.162,4.659,4.659,0,0,0-8.134,0,3.425,3.425,0,0,0-.6-.053,3.5,3.5,0,1,0,0,7h9.333a3.5,3.5,0,0,0,3.5-3.5V103.567A1.167,1.167,0,0,0,407.7,102.4Zm-2.333,53.667h-9.333a1.167,1.167,0,0,1,0-2.333,1.153,1.153,0,0,1,.632.19,1.167,1.167,0,0,0,1.769-.717,2.324,2.324,0,0,1,4.531,0,1.167,1.167,0,0,0,1.769.717,1.19,1.19,0,0,1,1.8.976A1.169,1.169,0,0,1,405.367,156.067Z" transform="translate(-338.867 -88.4)"/>
        <path id="Path_206" data-name="Path 206" d="M274.234,60.534H278.9a1.167,1.167,0,0,0,1.167-1.167v-7A1.167,1.167,0,0,0,278.9,51.2h-4.667a1.167,1.167,0,0,0-1.167,1.167v7A1.167,1.167,0,0,0,274.234,60.534Zm1.167-7h2.333V58.2H275.4Z" transform="translate(-235.734 -44.201)"/>
        <path id="Path_207" data-name="Path 207" d="M273.067,264.167a1.167,1.167,0,0,0,1.167,1.167H278.9a1.167,1.167,0,0,0,1.167-1.167v-7A1.167,1.167,0,0,0,278.9,256h-4.667a1.167,1.167,0,0,0-1.167,1.167Zm2.333-5.833h2.333V263H275.4Z" transform="translate(-235.734 -221)"/>
        <path id="Path_208" data-name="Path 208" d="M188.9,60.534h4.667a1.167,1.167,0,0,0,1.167-1.167v-7a1.167,1.167,0,0,0-1.167-1.167H188.9a1.167,1.167,0,0,0-1.167,1.167v7A1.167,1.167,0,0,0,188.9,60.534Zm1.167-7H192.4V58.2h-2.333Z" transform="translate(-162.067 -44.201)"/>
        <path id="Path_209" data-name="Path 209" d="M247.8,410.03a1.167,1.167,0,1,0,1.657,0A1.227,1.227,0,0,0,247.8,410.03Z" transform="translate(-213.633 -353.692)"/>
        <path id="Path_210" data-name="Path 210" d="M187.733,264.167a1.167,1.167,0,0,0,1.167,1.167h4.667a1.167,1.167,0,0,0,1.167-1.167v-7A1.167,1.167,0,0,0,193.566,256H188.9a1.167,1.167,0,0,0-1.167,1.167v7Zm2.333-5.833H192.4V263h-2.333Z" transform="translate(-162.066 -221)"/>
        <path id="Path_211" data-name="Path 211" d="M170.667,359.567a1.167,1.167,0,0,0,1.167,1.167h3.5v10.5a1.167,1.167,0,0,0,2.333,0v-10.5H187v10.5a1.167,1.167,0,0,0,2.333,0v-10.5h3.5a1.167,1.167,0,0,0,0-2.333h-21A1.167,1.167,0,0,0,170.667,359.567Z" transform="translate(-147.334 -309.4)"/>
        <path id="Path_212" data-name="Path 212" d="M409.6,264.167a1.167,1.167,0,0,0,1.167,1.167h4.667a1.167,1.167,0,0,0,1.167-1.167v-7A1.167,1.167,0,0,0,415.433,256h-4.667a1.167,1.167,0,0,0-1.167,1.167Zm2.333-5.833h2.333V263h-2.333Z" transform="translate(-353.6 -221)"/>
        <path id="Path_213" data-name="Path 213" d="M168.034,0H137.7a1.167,1.167,0,0,0-1.167,1.167V61.833a1.167,1.167,0,1,0,2.333,0V2.333h28v59.5a1.167,1.167,0,1,0,2.333,0V1.167A1.167,1.167,0,0,0,168.034,0Z" transform="translate(-117.867)"/>
      </g>
    </g>
  </g>
</svg>
