<svg width="46" height="46" viewBox="0 0 46 46" fill="none" xmlns="http://www.w3.org/2000/svg">
<g clip-path="url(#clip0)">
<path d="M15.2915 44.7656C16.9913 46.4613 19.743 46.4613 21.4425 44.7656L41.1966 25.0114C41.8882 24.3182 42.3267 23.413 42.4414 22.4405L43.8183 10.6477C44.0585 8.63575 43.48 6.61175 42.2124 5.03078L45.7666 1.47611C46.0837 1.14155 46.0771 0.61539 45.7508 0.289139C45.425 -0.0366957 44.8988 -0.0441765 44.5639 0.272515L41.0092 3.82719C39.4278 2.55959 37.4034 1.98149 35.3914 2.22212L23.599 3.59861C22.6269 3.71331 21.7213 4.15178 21.0281 4.84335L1.27394 24.5971C-0.424645 26.2957 -0.424645 29.0495 1.27394 30.748L15.2915 44.7656ZM2.47795 25.8007L22.2317 6.04694C22.6535 5.62593 23.2046 5.35911 23.7965 5.28929L35.5893 3.91239C37.0838 3.73409 38.5899 4.13848 39.794 5.04159L34.8083 10.0272C32.5977 8.44332 29.5418 8.82028 27.7821 10.8941C26.0229 12.9676 26.1488 16.0443 28.0718 17.9673C29.9948 19.8903 33.0715 20.0167 35.1454 18.257C37.2193 16.4978 37.5962 13.4414 36.0124 11.2308L40.998 6.24518C41.9007 7.44961 42.305 8.95535 42.1272 10.4499L40.7503 22.2431C40.6804 22.8349 40.4136 23.386 39.993 23.8078L20.2389 43.562C19.2044 44.5939 17.5299 44.5939 16.4951 43.562L2.47795 29.5445C1.44392 28.5108 1.44392 26.8343 2.47795 25.8007V25.8007ZM34.2564 11.7831C35.4475 12.9718 35.6329 14.8358 34.6995 16.2355C33.766 17.6353 31.9735 18.1805 30.4187 17.5376C28.8639 16.8947 27.9799 15.2426 28.3079 13.5927C28.6354 11.9423 30.0837 10.7537 31.7661 10.7537C32.6996 10.7537 33.5952 11.124 34.2564 11.7831Z" fill="#01ACEE"/>
</g>
<defs>
<clipPath id="clip0">
<rect width="46" height="46" fill="white"/>
</clipPath>
</defs>
</svg>
