<svg xmlns="http://www.w3.org/2000/svg" viewBox="0 0 22.7 20.289">
  <defs>
    <style>
      .cls-1 {
        fill: none;
        stroke: #1c1c1c;
        stroke-linecap: round;
        stroke-linejoin: round;
        stroke-miterlimit: 10;
      }
    </style>
  </defs>
  <g id="students-icon" transform="translate(-306.5 -140.5)">
    <path id="path" class="cls-1" d="M10.542,13.6v3.145L5.3,19.156" transform="translate(306.731 141.133)"/>
    <path id="path-2" data-name="path" class="cls-1" d="M16.1,13.6v3.145l5.346,2.411" transform="translate(307.253 141.133)"/>
    <path id="path-3" data-name="path" class="cls-1" d="M15.338,14.757A5.456,5.456,0,0,0,19.007,9.62V4.8a4.251,4.251,0,0,0-4.3-4.3H12.4A4.34,4.34,0,0,0,8,4.8V9.62a5.456,5.456,0,0,0,3.669,5.137" transform="translate(306.862 140.5)"/>
    <path id="path-4" data-name="path" class="cls-1" d="M4.8,11.3v2.516L.5,15.808" transform="translate(306.5 141.022)"/>
    <path id="path-5" data-name="path" class="cls-1" d="M7.1.5H6.264A3.535,3.535,0,0,0,2.7,4.064V7.943a4.454,4.454,0,0,0,2.935,4.193" transform="translate(306.606 140.5)"/>
  </g>
</svg>
